<?xml version="1.0" encoding="utf-8"?>
<!-- Generator: Adobe Illustrator 25.0.0, SVG Export Plug-In . SVG Version: 6.00 Build 0)  -->
<svg version="1.1" id="_x30_" xmlns="http://www.w3.org/2000/svg" xmlns:xlink="http://www.w3.org/1999/xlink" x="0px" y="0px"
	 viewBox="0 0 595.3 841.9" style="enable-background:new 0 0 595.3 841.9;" xml:space="preserve">
<style type="text/css">
	.st0{fill:none;stroke:#000000;stroke-width:0.7087;stroke-linecap:round;stroke-linejoin:round;stroke-miterlimit:10;}
	.st1{fill-rule:evenodd;clip-rule:evenodd;fill:#FFFF00;stroke:#000000;stroke-width:3;stroke-miterlimit:10;}
	.st2{fill-rule:evenodd;clip-rule:evenodd;stroke:#000000;stroke-miterlimit:10;}
	.st3{fill-rule:evenodd;clip-rule:evenodd;fill:#FFFFFF;}
	.st4{fill-rule:evenodd;clip-rule:evenodd;fill:#FFFF00;}
</style>
<g id="LWPOLYLINE">
	<path class="st0" d="M304.1,715.7l288.2-288.2c3.6-3.6,3.6-9.5,0-13.2c0,0-288.2-288.2-288.2-288.2c-3.6-3.6-9.5-3.6-13.2,0
		c0,0-288.2,288.2-288.2,288.2c-3.6,3.6-3.6,9.5,0,13.2c0,0,288.2,288.2,288.2,288.2C294.5,719.4,300.4,719.4,304.1,715.7z"/>
</g>
<g id="LWPOLYLINE_1_">
	<path class="st0" d="M304.1,702.5l275-275c3.6-3.6,3.6-9.5,0-13.2c0,0-275-275-275-275c-3.6-3.6-9.5-3.6-13.2,0
		c0,0-275,275-275,275c-3.6,3.6-3.6,9.5,0,13.2c0,0,275,275,275,275C294.5,706.2,300.4,706.2,304.1,702.5z"/>
</g>
<g id="HATCH">
	<path class="st1" d="M558,414.3L304.1,160.4h-13.2L36.9,414.3v13.2l253.9,253.9h13.2L558,427.5V414.3z M205.1,334.1l-24-47.9
		l51.1-25.6l32,63.9l0.5,2.1v188.4l-0.5,2.1l-32,63.9l-51.1-25.6l24-47.9V334.1z M330.1,326.7l0.5-2.1l32-63.9l51.1,25.6l-24,47.9
		v173.5l24,47.9l-51.1,25.6l-32-63.9l-0.5-2.1V326.7z M304.1,126.1h-13.2L2.6,414.3v13.2l288.2,288.2h13.2l288.2-288.2v-13.2
		L304.1,126.1z M579.1,414.3v13.2l-275,275h-13.2l-275-275v-13.2l275-275h13.2L579.1,414.3z M558,414.3v13.2L304.1,681.4h-13.2
		L36.9,427.5v-13.2l253.9-253.9h13.2L558,414.3z"/>
</g>
<g id="LWPOLYLINE_2_">
	<path class="st0" d="M304.1,681.4L558,427.5c3.6-3.6,3.6-9.5,0-13.2c0,0-253.9-253.9-253.9-253.9c-3.6-3.6-9.5-3.6-13.2,0
		c0,0-253.9,253.9-253.9,253.9c-3.6,3.6-3.6,9.5,0,13.2c0,0,253.9,253.9,253.9,253.9C294.5,685.1,300.4,685.1,304.1,681.4z"/>
</g>
<g id="HATCH_1_">
	<path class="st2" d="M304.1,139.2h-13.2l-275,275v13.2l275,275h13.2l275-275v-13.2L304.1,139.2z M290.9,160.4h13.2L558,414.3v13.2
		L304.1,681.4h-13.2L36.9,427.5v-13.2L290.9,160.4z M232.3,260.6l32,63.9l0.5,2.1v188.4l-0.5,2.1l-32,63.9l-51.1-25.6l24-47.9V334.1
		l-24-47.9L232.3,260.6z M330.6,324.6l32-63.9l51.1,25.6l-24,47.9v173.5l24,47.9l-51.1,25.6l-32-63.9l-0.5-2.1V326.7L330.6,324.6z
		 M304.1,160.4h-13.2L36.9,414.3v13.2l253.9,253.9h13.2L558,427.5v-13.2L304.1,160.4z M181.2,286.3l24,47.9v173.5l-24,47.9
		l51.1,25.6l32-63.9l0.5-2.1V326.7l-0.5-2.1l-32-63.9L181.2,286.3z"/>
</g>
<g id="HATCH_2_">
	<path class="st3" d="M304.1,160.4h-13.2L36.9,414.3v13.2l253.9,253.9h13.2L558,427.5v-13.2L304.1,160.4z M330.1,515.1l0.5,2.1
		l32,63.9l51.1-25.6l-24-47.9V334.1l24-47.9l-51.1-25.6l-32,63.9l-0.5,2.1V515.1z M264.8,515.1l-0.5,2.1l-32,63.9l-51.1-25.6
		l24-47.9V334.1l-24-47.9l51.1-25.6l32,63.9l0.5,2.1V515.1z"/>
</g>
<g id="LINE">
	<line class="st0" x1="264.8" y1="326.7" x2="264.8" y2="515.1"/>
</g>
<g id="ARC">
	<path class="st0" d="M264.8,326.7c0-0.7-0.2-1.4-0.5-2.1"/>
</g>
<g id="LINE_1_">
	<line class="st0" x1="205.1" y1="334.1" x2="205.1" y2="507.6"/>
</g>
<g id="LINE_2_">
	<line class="st0" x1="205.1" y1="334.1" x2="181.2" y2="286.3"/>
</g>
<g id="LINE_3_">
	<line class="st0" x1="264.3" y1="324.6" x2="232.3" y2="260.6"/>
</g>
<g id="LINE_4_">
	<line class="st0" x1="181.2" y1="286.3" x2="232.3" y2="260.6"/>
</g>
<g id="LINE_5_">
	<line class="st0" x1="205.1" y1="507.6" x2="205.1" y2="334.1"/>
</g>
<g id="ARC_1_">
	<path class="st0" d="M264.3,517.2c0.3-0.6,0.5-1.4,0.5-2.1"/>
</g>
<g id="LINE_6_">
	<line class="st0" x1="205.1" y1="507.6" x2="181.2" y2="555.5"/>
</g>
<g id="LINE_7_">
	<line class="st0" x1="264.3" y1="517.2" x2="232.3" y2="581.1"/>
</g>
<g id="ARC_2_">
	<path class="st0" d="M264.3,517.2c0.3-0.6,0.5-1.4,0.5-2.1"/>
</g>
<g id="LINE_8_">
	<line class="st0" x1="181.2" y1="555.5" x2="232.3" y2="581.1"/>
</g>
<g id="HATCH_3_">
	<path class="st4" d="M304.1,160.4h-13.2L36.9,414.3v13.2l253.9,253.9h13.2L558,427.5v-13.2L304.1,160.4z M264.8,515.1l-0.5,2.1
		l-32,63.9l-51.1-25.6l24-47.9V334.1l-24-47.9l51.1-25.6l32,63.9l0.5,2.1V515.1z M330.1,326.7l0.5-2.1l32-63.9l51.1,25.6l-24,47.9
		v173.5l24,47.9l-51.1,25.6l-32-63.9l-0.5-2.1V326.7z"/>
</g>
<g id="HATCH_4_">
	<polygon class="st2" points="264.8,326.7 264.3,324.6 232.3,260.6 181.2,286.3 205.1,334.1 205.1,507.6 181.2,555.5 232.3,581.1 
		264.3,517.2 264.8,515.1 	"/>
</g>
<g id="HATCH_5_">
	<polygon class="st2" points="389.8,334.1 413.8,286.3 362.7,260.6 330.6,324.6 330.1,326.7 330.1,515.1 330.6,517.2 362.7,581.1 
		413.8,555.5 389.8,507.6 	"/>
</g>
<g id="LINE_9_">
	<line class="st0" x1="330.1" y1="326.7" x2="330.1" y2="515.1"/>
</g>
<g id="ARC_3_">
	<path class="st0" d="M330.6,324.6c-0.3,0.6-0.5,1.4-0.5,2.1"/>
</g>
<g id="LINE_10_">
	<line class="st0" x1="389.8" y1="334.1" x2="389.8" y2="507.6"/>
</g>
<g id="LINE_11_">
	<line class="st0" x1="389.8" y1="334.1" x2="413.8" y2="286.3"/>
</g>
<g id="LINE_12_">
	<line class="st0" x1="330.6" y1="324.6" x2="362.7" y2="260.6"/>
</g>
<g id="LINE_13_">
	<line class="st0" x1="413.8" y1="286.3" x2="362.7" y2="260.6"/>
</g>
<g id="LINE_14_">
	<line class="st0" x1="389.8" y1="507.6" x2="389.8" y2="334.1"/>
</g>
<g id="ARC_4_">
	<path class="st0" d="M330.1,515.1c0,0.7,0.2,1.4,0.5,2.1"/>
</g>
<g id="LINE_15_">
	<line class="st0" x1="389.8" y1="507.6" x2="413.8" y2="555.5"/>
</g>
<g id="LINE_16_">
	<line class="st0" x1="330.6" y1="517.2" x2="362.7" y2="581.1"/>
</g>
<g id="ARC_5_">
	<path class="st0" d="M330.1,515.1c0,0.7,0.2,1.4,0.5,2.1"/>
</g>
<g id="LINE_17_">
	<line class="st0" x1="413.8" y1="555.5" x2="362.7" y2="581.1"/>
</g>
</svg>
