<?xml version="1.0" encoding="utf-8"?>
<!-- Generator: Adobe Illustrator 25.0.0, SVG Export Plug-In . SVG Version: 6.00 Build 0)  -->
<svg version="1.1" id="_x30_" xmlns="http://www.w3.org/2000/svg" xmlns:xlink="http://www.w3.org/1999/xlink" x="0px" y="0px"
	 viewBox="0 0 595.3 841.9" style="enable-background:new 0 0 595.3 841.9;" xml:space="preserve">
<style type="text/css">
	.st0{fill:#939598;stroke:#000000;stroke-width:4;stroke-linecap:round;stroke-linejoin:round;stroke-miterlimit:10;}
	.st1{fill:#F8F8F8;stroke:#000000;stroke-width:5;stroke-linecap:round;stroke-linejoin:round;stroke-miterlimit:10;}
</style>
<g id="LWPOLYLINE">
	<rect x="0" y="123.3" class="st0" width="595.1" height="595.1"/>
</g>
<g id="CIRCLE">
	<path class="st1" d="M59.5,420.9c0-131.5,106.6-238,238-238s238,106.6,238,238s-106.6,238-238,238S59.5,552.4,59.5,420.9
		L59.5,420.9z"/>
	<g id="HATCH">
		<path class="st1" d="M65.3,380.2l191.5-191.5 M63.5,448.8l261.9-261.9 M76.2,502.8l303.2-303.2 M97.8,548.1l327-327 M126.8,585.9
			l335.8-335.8 M163.7,615.8l328.7-328.7 M207.1,639.1l308.6-308.6 M258.9,654.2l271.9-271.9 M324,655.9l208.5-208.5 M426.9,619.8
			l69.5-69.5"/>
	</g>
</g>
</svg>
